<?xml version="1.0" encoding="utf-8"?>
<!-- Generator: Adobe Illustrator 27.0.0, SVG Export Plug-In . SVG Version: 6.00 Build 0)  -->
<svg version="1.1" id="Capa_1" xmlns="http://www.w3.org/2000/svg" xmlns:xlink="http://www.w3.org/1999/xlink" x="0px" y="0px"
	 viewBox="0 0 2650 1080" style="enable-background:new 0 0 2650 1080;" xml:space="preserve">
<style type="text/css">
	.st0{fill:none;}
	.st1{font-family:'ArialMT';}
	.st2{font-size:100px;}
	.st3{fill:#FCCA21;}
	.st4{fill:#B3B3B3;}
	.st5{fill:#E5682B;}
	.st6{fill:none;stroke:#000000;stroke-width:7;stroke-miterlimit:10;}
	.st7{font-size:68.6515px;}
</style>
<g id="Capa_1_00000133518754864343391700000009589650881273622192_">
</g>
<g id="Capa_2_00000033359018279422212680000007235940361987844251_">
	<rect x="150.1" y="805.9" class="st0" width="305.7" height="72"/>
	<text transform="matrix(1 0 0 1 145.1459 876.8979)" class="st1 st2">EE.UU.</text>
	<rect x="150.1" y="504.5" class="st0" width="305.7" height="72"/>
	<text transform="matrix(1 0 0 1 145.1459 575.499)" class="st1 st2">Cuba</text>
	<g>
		<rect x="465.9" y="769.5" class="st3" width="471" height="145"/>
		<path class="st3" d="M936.4,770v144h-470V770H936.4 M937.4,769h-472v146h472V769L937.4,769z"/>
	</g>
	<g>
		<rect x="937.9" y="769.5" class="st4" width="471" height="145"/>
		<path class="st4" d="M1408.4,770v144h-470V770H1408.4 M1409.4,769h-472v146h472V769L1409.4,769z"/>
	</g>
	<rect x="1492" y="789.6" class="st0" width="67.9" height="72"/>
	<rect x="150.1" y="202.7" class="st0" width="305.7" height="72"/>
	<text transform="matrix(1 0 0 1 145.1459 273.7236)" class="st1 st2">Brasil</text>
	<g>
		<rect x="1645.2" y="467.7" class="st5" width="353.6" height="145"/>
		<path class="st5" d="M1998.3,468.2v144h-352.6v-144H1998.3 M1999.3,467.2h-354.6v146h354.6V467.2L1999.3,467.2z"/>
	</g>
	<g>
		<rect x="465.5" y="467.7" class="st3" width="589" height="145"/>
		<path class="st3" d="M1054,468.2v144H466v-144H1054 M1055,467.2H465v146h590V467.2L1055,467.2z"/>
	</g>
	<g>
		<rect x="1055.5" y="467.7" class="st4" width="589" height="145"/>
		<path class="st4" d="M1644,468.2v144h-588v-144H1644 M1645,467.2h-590v146h590V467.2L1645,467.2z"/>
	</g>
	<rect x="2081" y="488.2" class="st0" width="67.9" height="72"/>
	<g>
		<rect x="465.9" y="165.5" class="st3" width="471" height="145"/>
		<path class="st3" d="M936.4,166v144h-470V166H936.4 M937.4,165h-472v146h472V165L937.4,165z"/>
	</g>
	<g>
		<rect x="937.9" y="165.5" class="st4" width="825" height="145"/>
		<path class="st4" d="M1762.4,166v144h-824V166H1762.4 M1763.4,165h-826v146h826V165L1763.4,165z"/>
	</g>
	<rect x="2436" y="186.4" class="st0" width="67.9" height="72"/>
	<g>
		<rect x="1763.9" y="165.5" class="st5" width="589" height="145"/>
		<path class="st5" d="M2352.4,166v144h-588V166H2352.4 M2353.4,165h-590v146h590V165L2353.4,165z"/>
	</g>
	<line class="st6" x1="464.5" y1="127.5" x2="464.5" y2="998.9"/>
	<text transform="matrix(0.8784 0 0 1 1039.6556 1054.5219)" class="st1 st7">5</text>
	<line class="st6" x1="467" y1="995.4" x2="2349.5" y2="995.3"/>
	<line class="st6" x1="586" y1="969" x2="586" y2="998.9"/>
	<line class="st6" x1="704" y1="969" x2="704" y2="998.9"/>
	<line class="st6" x1="822" y1="969" x2="822" y2="998.9"/>
	<line class="st6" x1="940" y1="969" x2="940" y2="998.9"/>
	<line class="st6" x1="1058" y1="969" x2="1058" y2="998.9"/>
	<line class="st6" x1="1176" y1="969" x2="1176" y2="998.9"/>
	<line class="st6" x1="1294" y1="969" x2="1294" y2="998.9"/>
	<line class="st6" x1="1412" y1="969" x2="1412" y2="998.9"/>
	<line class="st6" x1="1530" y1="969" x2="1530" y2="998.9"/>
	<line class="st6" x1="1648" y1="969" x2="1648" y2="998.9"/>
	<line class="st6" x1="1766" y1="969" x2="1766" y2="998.9"/>
	<line class="st6" x1="1884" y1="969" x2="1884" y2="998.9"/>
	<line class="st6" x1="2002" y1="969" x2="2002" y2="998.9"/>
	<line class="st6" x1="2120" y1="969" x2="2120" y2="998.9"/>
	<line class="st6" x1="2238" y1="969" x2="2238" y2="998.9"/>
	<line class="st6" x1="2346.5" y1="969" x2="2346.5" y2="998.9"/>
	<text transform="matrix(0.8784 0 0 1 1613.4492 1055.3453)" class="st1 st7">10</text>
	<text transform="matrix(0.8784 0 0 1 2205.189 1054.5211)" class="st1 st7">15</text>
</g>
</svg>
