<?xml version="1.0" encoding="utf-8"?>
<!-- Generator: Adobe Illustrator 27.5.0, SVG Export Plug-In . SVG Version: 6.00 Build 0)  -->
<svg version="1.1" xmlns="http://www.w3.org/2000/svg" xmlns:xlink="http://www.w3.org/1999/xlink" x="0px" y="0px"
	 viewBox="0 0 2650 1080" style="enable-background:new 0 0 2650 1080;" xml:space="preserve">
<style type="text/css">
	.st0{fill:none;}
	.st1{font-family:'MyriadPro-Regular';}
	.st2{font-size:100px;}
	.st3{fill:#FCCA21;}
	.st4{fill:#B3B3B3;}
	.st5{fill:#E5682B;}
	.st6{fill:none;stroke:#000000;stroke-width:7;stroke-miterlimit:10;}
	.st7{fill:#FCCA21;stroke:#FCCA21;stroke-width:7;stroke-miterlimit:10;}
	.st8{fill:#B3B3B3;stroke:#B3B3B3;stroke-width:7;stroke-miterlimit:10;}
	.st9{fill:#E5682B;stroke:#E5682B;stroke-width:7;stroke-miterlimit:10;}
</style>
<g id="Capa_1">
</g>
<g id="Capa_2">
	<rect x="148.1" y="805.9" class="st0" width="305.7" height="72"/>
	<text transform="matrix(1 0 0 1 148.1459 876.8979)" class="st1 st2">EE.UU.</text>
	<rect x="148.1" y="504.5" class="st0" width="305.7" height="72"/>
	<text transform="matrix(1 0 0 1 148.1459 575.499)" class="st1 st2">Cuba</text>
	<g>
		<rect x="463.9" y="769.5" class="st3" width="471" height="145"/>
		<path class="st3" d="M934.4,770v144h-470V770H934.4 M935.4,769h-472v146h472V769L935.4,769z"/>
	</g>
	<g>
		<rect x="935.9" y="769.5" class="st4" width="471" height="145"/>
		<path class="st4" d="M1406.4,770v144h-470V770H1406.4 M1407.4,769h-472v146h472V769L1407.4,769z"/>
	</g>
	<rect x="1490" y="789.6" class="st0" width="67.9" height="72"/>
	<text transform="matrix(1 0 0 1 1489.9662 860.5742)" class="st1 st2">8</text>
	<rect x="148.1" y="202.7" class="st0" width="305.7" height="72"/>
	<text transform="matrix(1 0 0 1 148.1459 273.7236)" class="st1 st2">Brasil</text>
	<g>
		<rect x="1643.2" y="467.7" class="st5" width="353.6" height="145"/>
		<path class="st5" d="M1996.3,468.2v144h-352.6v-144H1996.3 M1997.3,467.2h-354.6v146h354.6V467.2L1997.3,467.2z"/>
	</g>
	<g>
		<rect x="463.5" y="467.7" class="st3" width="589" height="145"/>
		<path class="st3" d="M1052,468.2v144H464v-144H1052 M1053,467.2H463v146h590V467.2L1053,467.2z"/>
	</g>
	<g>
		<rect x="1053.5" y="467.7" class="st4" width="589" height="145"/>
		<path class="st4" d="M1642,468.2v144h-588v-144H1642 M1643,467.2h-590v146h590V467.2L1643,467.2z"/>
	</g>
	<rect x="2079" y="488.2" class="st0" width="67.9" height="72"/>
	<text transform="matrix(1 0 0 1 2078.9663 559.1752)" class="st1 st2">13</text>
	<g>
		<rect x="463.9" y="165.5" class="st3" width="471" height="145"/>
		<path class="st3" d="M934.4,166v144h-470V166H934.4 M935.4,165h-472v146h472V165L935.4,165z"/>
	</g>
	<g>
		<rect x="935.9" y="165.5" class="st4" width="825" height="145"/>
		<path class="st4" d="M1760.4,166v144h-824V166H1760.4 M1761.4,165h-826v146h826V165L1761.4,165z"/>
	</g>
	<rect x="2434" y="186.4" class="st0" width="67.9" height="72"/>
	<text transform="matrix(1 0 0 1 2433.9663 257.3998)" class="st1 st2">16</text>
	<g>
		<rect x="1761.9" y="165.5" class="st5" width="589" height="145"/>
		<path class="st5" d="M2350.4,166v144h-588V166H2350.4 M2351.4,165h-590v146h590V165L2351.4,165z"/>
	</g>
	<line class="st6" x1="462.5" y1="127.5" x2="462.5" y2="952.5"/>
</g>
</svg>
