<?xml version="1.0" encoding="utf-8"?>
<!-- Generator: Adobe Illustrator 27.0.0, SVG Export Plug-In . SVG Version: 6.00 Build 0)  -->
<svg version="1.1" id="Layer_1" xmlns="http://www.w3.org/2000/svg" xmlns:xlink="http://www.w3.org/1999/xlink" x="0px" y="0px"
	 viewBox="0 0 841.9 595.3" style="enable-background:new 0 0 841.9 595.3;" xml:space="preserve">
<style type="text/css">
	.st0{fill:none;stroke:#100407;stroke-linecap:round;stroke-linejoin:round;stroke-dasharray:12.1988,12.1988;}
	.st1{fill:none;stroke:#100407;stroke-linecap:round;stroke-linejoin:round;stroke-dasharray:12.0995,12.0995;}
	.st2{font-family:'Helvetica';}
	.st3{font-size:12px;}
	.st4{fill:none;stroke:#000000;stroke-miterlimit:10;}
	.st5{fill:none;stroke:#100407;stroke-linecap:round;stroke-linejoin:round;}
	.st6{fill:none;stroke:#100407;stroke-linecap:round;stroke-linejoin:round;stroke-dasharray:12.0013,12.0013;}
	.st7{fill:#DF2F44;stroke:#020202;stroke-miterlimit:10;}
	.st8{fill:#006032;stroke:#020202;stroke-miterlimit:10;}
	.st9{fill:#23409C;stroke:#020202;stroke-miterlimit:10;}
	.st10{fill:#F6CE00;stroke:#020202;stroke-miterlimit:10;}
</style>
<g>
	<circle class="st0" cx="127.6" cy="453.7" r="62.1"/>
</g>
<g>
	
		<ellipse transform="matrix(0.7071 -0.7071 0.7071 0.7071 -39.7702 122.1501)" class="st1" cx="127.6" cy="109.1" rx="50.1" ry="50.1"/>
</g>
<image style="overflow:visible;" width="177" height="250" xlink:href="1606F0EC2270FF34.jpg"  transform="matrix(0.7914 0 0 0.7914 58.3685 176.4164)">
</image>
<text transform="matrix(1 0 0 1 76.8717 183.8775)"><tspan x="0" y="0" class="st2 st3">Pelota de Handball</tspan><tspan x="-45" y="14.4" class="st2 st3">(Talla 3 – Circunferencia: 58-60 cm)</tspan></text>
<text transform="matrix(1 0 0 1 71.8675 537.7789)"><tspan x="0" y="0" class="st2 st3">Pelota de Dodgeball </tspan><tspan x="-15" y="14.4" class="st2 st3">(Circunferencia: 67.82 cm)</tspan></text>
<text transform="matrix(1 0 0 1 79.2062 356.317)"><tspan x="0" y="0" class="st2 st3">Pelota de Voleibol</tspan><tspan x="-22.7" y="14.4" class="st2 st3">(Circunferencia: 65-67 cm)</tspan></text>
<image style="overflow:visible;" width="2048" height="2048" xlink:href="Untitled_Artwork.jpg"  transform="matrix(0.3051 0 0 0.3051 233.1034 5.5109)">
</image>
<text transform="matrix(1 0 0 1 577.6859 54.888)"><tspan x="0" y="0" class="st2 st3">Cámara interior de</tspan><tspan x="0" y="14.4" class="st2 st3">caucho o material similar</tspan></text>
<line class="st4" x1="563.9" y1="171.1" x2="563.9" y2="40.2"/>
<line class="st4" x1="621.9" y1="168.5" x2="621.9" y2="92.7"/>
<text transform="matrix(1 0 0 1 635.8112 104.7551)"><tspan x="0" y="0" class="st2 st3">Cubierta flexible de</tspan><tspan x="0" y="14.4" class="st2 st3">cuero o cuero sintético</tspan></text>
<line class="st4" x1="701.4" y1="230.1" x2="701.4" y2="145.7"/>
<text transform="matrix(1 0 0 1 712.978 156.8991)"><tspan x="0" y="0" class="st2 st3">Costuras o</tspan><tspan x="0" y="14.4" class="st2 st3">pegamento</tspan></text>
<g>
	<g>
		<path class="st5" d="M341.4,287.6c-2,0.6-3.9,1.2-5.7,1.7"/>
		<path class="st6" d="M324.4,293.5c-10.9,4.7-16.9,9.8-16.9,15.2c0,22.9,108.8,41.4,242.9,41.4s242.9-18.6,242.9-41.4
			c0-7.7-12.2-14.8-33.5-21"/>
		<path class="st5" d="M754.1,286.1c-1.9-0.5-3.8-1-5.8-1.5"/>
	</g>
</g>
<text transform="matrix(1 0 0 1 256.5503 537.6705)"><tspan x="0" y="0" class="st2 st3">Peso: 260 - 280 grs </tspan><tspan x="0" y="14.4" class="st2 st3">Presión interna:  0,30 y 0,325 kg/cm²</tspan></text>
<line class="st4" x1="328.7" y1="513" x2="328.7" y2="325.9"/>
<g id="hG5809_00000165214685248916122300000002840051938967040693_">
	
		<image style="overflow:visible;" width="500" height="500" id="hG5809_00000157297555835895412710000009190169513936137369_" xlink:href="1606F0EC2270FF33.jpg"  transform="matrix(0.4493 0 0 0.4493 1038.1323 128.2228)">
	</image>
</g>
<g id="_x30_Rt4JG_00000108301110406076943350000018305661786917032090_">
	
		<image style="overflow:visible;" width="381" height="492" id="_x30_Rt4JG_00000163033959044057699920000017447495711126647938_" xlink:href="1606F0EC2270FF3C.jpg"  transform="matrix(0.4493 0 0 0.4493 1080.7445 396.9407)">
	</image>
</g>
<rect x="340.2" y="93.9" class="st7" width="30" height="24.7"/>
<rect x="370.2" y="93.9" class="st8" width="30" height="24.7"/>
<rect x="411.5" y="94.2" class="st9" width="30" height="24.7"/>
<rect x="441.4" y="94.2" class="st10" width="30" height="24.7"/>
<text transform="matrix(1 0 0 1 339.6637 82.8884)" class="st2 st3">Combinación de colores:</text>
<line class="st4" x1="484.4" y1="132.9" x2="484.4" y2="72.5"/>
</svg>
