<?xml version="1.0" encoding="utf-8"?>
<!-- Generator: Adobe Illustrator 27.0.0, SVG Export Plug-In . SVG Version: 6.00 Build 0)  -->
<svg version="1.1" id="Layer_1" xmlns="http://www.w3.org/2000/svg" xmlns:xlink="http://www.w3.org/1999/xlink" x="0px" y="0px"
	 viewBox="0 0 841.9 351.1" style="enable-background:new 0 0 841.9 351.1;" xml:space="preserve">
<style type="text/css">
	.st0{font-family:'Helvetica';}
	.st1{font-size:9px;}
	.st2{fill:none;stroke:#000000;stroke-miterlimit:10;}
	.st3{fill:none;}
</style>
<image style="overflow:visible;enable-background:new    ;" width="700" height="250" xlink:href="clase-16-main/img/saque-1.jpg"  transform="matrix(1 0 0 1 71 47.0429)">
</image>
<text transform="matrix(1 0 0 1 173.0836 89.8109)" class="st0 st1">Mano dominante</text>
<text transform="matrix(1 0 0 1 195.5836 100.611)" class="st0 st1">del jugador</text>
<text transform="matrix(1 0 0 1 289.2248 280.7454)" class="st0 st1">Pie contrario a mano</text>
<text transform="matrix(1 0 0 1 289.2248 291.5453)" class="st0 st1">dominane por delante</text>
<line class="st2" x1="244.3" y1="123.3" x2="244.3" y2="81.1"/>
<line class="st2" x1="281.3" y1="290.4" x2="281.3" y2="248.2"/>
<text transform="matrix(1 0 0 1 627.7097 290.2798)" class="st0 st1">Golpe de palma</text>
<line class="st2" x1="624.6" y1="291.5" x2="624.6" y2="242.3"/>
<text transform="matrix(1 0 0 1 590.6219 53.7789)" class="st0 st1">Golpe de puño</text>
<line class="st2" x1="588.2" y1="99.3" x2="588.2" y2="47"/>
<path id="SVGID_x5F_1_x5F_" class="st3" d="M698.8,128c0,34.3-27.8,62.2-62.2,62.2c-34.3,0-62.2-27.8-62.2-62.2s27.8-62.2,62.2-62.2
	S698.8,93.7,698.8,128z"/>
<text transform="matrix(1 0 0 1 0 -125.2327)" style="font-family:'ArialMT'; font-size:12px;"> </text>
<path id="SVGID_x5F_00000155144122791859042220000016529736324133127103_x5F_" class="st3" d="M750,211.6c0-38.2-31-69.2-69.2-69.2
	s-69.2,31-69.2,69.2s31,69.2,69.2,69.2S750,249.8,750,211.6z"/>
<text transform="matrix(1 0 0 1 0 -125.2327)" style="font-family:'ArialMT'; font-size:12px;"> </text>
</svg>
